<svg xmlns="http://www.w3.org/2000/svg" width="512" height="512" fill="none"><g clip-path="url(#a)"><path fill="#fff" fill-opacity=".1" d="M256 512c141.385 0 256-114.615 256-256S397.385 0 256 0 0 114.615 0 256s114.615 256 256 256z"/><path fill="#00264C" d="M249.1 512c113.185 0 204.94-23.792 204.94-53.14 0-29.349-91.755-53.14-204.94-53.14S44.16 429.511 44.16 458.86c0 29.348 91.755 53.14 204.94 53.14z"/><path fill="#2850AF" d="m244.06 38.48 165.7 95.66c10.48 6.06 19 20.82 19 32.92v288.7c0 6.04-2.14 10.3-5.58 12.3-3.42 1.98-21.08 11.96-21.08 11.96L238.14 367.66c-10.46-6.04-13.08-17.4-13.08-29.5l-15.4-288.94s17.34-9.66 20.48-11.76c3.48-2.3 8.42-2.14 13.92 1.02z"/><path fill="#47BFFF" d="m223.262 50.26 165.7 95.66c10.48 6.06 19 20.82 19 32.92v288.7c0 12.1-8.52 17.02-19 10.96l-171.62-99.08c-10.48-6.04-13.1-17.4-13.1-29.5V61.22c0-12.1 8.52-17.02 19.02-10.96z"/><path fill="#0080FF" d="m226.76 74.1 150.84 87.08c2.62 1.52 4.76 5.36 4.76 8.6v76.26c0 3.24-2.14 4.62-4.76 3.12l-150.84-87.08c-2.64-1.52-4.76-5.36-4.76-8.6V77.22c0-3.24 2.12-4.62 4.76-3.1v-.02zM344.9 243.26l35.66 20.6c2.42 1.4 4.38 4.8 4.38 7.6v24.7c0 1.48-.54 2.5-1.44 2.92-.76.36-4.56 2.6-4.56 2.6l-32.32-24.52c-2.44-1.4-4.4-4.8-4.4-7.6l-4.72-24.08s3.48-2.08 4.28-2.54c.8-.46 1.9-.4 3.1.3h.02v.02zm-56.121-32.28 35.68 20.6c2.42 1.4 4.38 4.8 4.38 7.6v24.7c0 1.48-.56 2.5-1.44 2.92-.78.38-4.56 2.6-4.56 2.6l-32.34-24.52c-2.42-1.4-4.38-4.8-4.38-7.6l-4.74-24.08s3.5-2.08 4.3-2.54c.8-.46 1.9-.4 3.1.3v.02zm-56.238-32.18 35.68 20.6c2.42 1.4 4.38 4.8 4.38 7.6v24.7c0 1.48-.56 2.5-1.44 2.92-.78.36-4.56 2.6-4.56 2.6l-32.34-24.52c-2.42-1.4-4.38-4.8-4.38-7.6l-4.74-24.08s3.5-2.08 4.3-2.54c.8-.46 1.9-.4 3.1.3v.02zM344.9 293.3l35.66 20.58c2.42 1.4 4.38 4.8 4.38 7.6v24.7c0 1.5-.54 2.5-1.44 2.92-.76.36-4.56 2.6-4.56 2.6l-32.32-24.52c-2.44-1.4-4.4-4.8-4.4-7.6l-4.72-24.08s3.48-2.08 4.28-2.54c.8-.46 1.9-.4 3.1.3h.02v.04zm-56.121-32.28 35.68 20.6c2.42 1.4 4.38 4.8 4.38 7.6v24.7c0 1.48-.56 2.5-1.44 2.92-.78.36-4.56 2.6-4.56 2.6l-32.34-24.52c-2.42-1.4-4.38-4.8-4.38-7.6l-4.74-24.08s3.5-2.08 4.3-2.54c.8-.46 1.9-.4 3.1.3v.02zm-56.238-32.16 35.68 20.6c2.42 1.4 4.38 4.8 4.38 7.6v24.7c0 1.48-.56 2.5-1.44 2.92-.78.38-4.56 2.6-4.56 2.6l-32.34-24.52c-2.42-1.4-4.38-4.8-4.38-7.6l-4.74-24.08s3.5-2.08 4.3-2.54c.8-.46 1.9-.4 3.1.3v.02z"/><path fill="#fff" d="m284.341 213.58 35.66 20.58c2.44 1.4 4.4 4.8 4.4 7.6v24.7c0 2.8-1.96 3.92-4.4 2.54l-35.66-20.6c-2.42-1.4-4.38-4.8-4.38-7.6v-24.7c0-2.8 1.96-3.92 4.38-2.54v.02zm55.98 32.3 35.66 20.58c2.44 1.4 4.4 4.8 4.4 7.6v24.7c0 2.8-1.96 3.94-4.4 2.54l-35.66-20.6c-2.42-1.4-4.38-4.8-4.38-7.6v-24.7c0-2.8 1.96-3.94 4.38-2.54v.02zM228.38 181.26l35.66 20.58c2.42 1.4 4.38 4.8 4.38 7.6v24.7c0 2.8-1.96 3.94-4.38 2.54l-35.66-20.6c-2.44-1.4-4.4-4.8-4.4-7.6v-24.7c0-2.8 1.96-3.92 4.4-2.54v.02zm55.961 82.36 35.66 20.6c2.44 1.4 4.4 4.8 4.4 7.6v24.7c0 2.8-1.96 3.92-4.4 2.54l-35.66-20.58c-2.42-1.4-4.38-4.8-4.38-7.6v-24.7c0-2.8 1.96-3.92 4.38-2.54v-.02zm55.98 32.32 35.66 20.6c2.44 1.4 4.4 4.8 4.4 7.6v24.7c0 2.8-1.96 3.92-4.4 2.54l-35.66-20.58c-2.42-1.4-4.38-4.8-4.38-7.6v-24.7c0-2.8 1.96-3.92 4.38-2.54v-.02zM228.38 231.3l35.66 20.6c2.42 1.4 4.38 4.8 4.38 7.6v24.7c0 2.8-1.96 3.92-4.38 2.54l-35.66-20.58c-2.44-1.4-4.4-4.8-4.4-7.6v-24.7c0-2.8 1.96-3.94 4.4-2.54v-.02z"/><path fill="#0080FF" d="m288.619 311.68 35.66 20.58c2.42 1.4 4.4 4.8 4.4 7.6v24.7c0 1.48-.56 2.5-1.44 2.92-.78.36-4.58 2.6-4.58 2.6l-32.32-24.52c-2.42-1.4-4.4-4.8-4.4-7.6l-4.72-24.08s3.5-2.08 4.28-2.54c.8-.46 1.9-.4 3.1.3h.02v.04zm-56.098-32.28 35.66 20.58c2.42 1.4 4.38 4.8 4.38 7.6v24.7c0 1.48-.54 2.5-1.44 2.92-.76.36-4.56 2.6-4.56 2.6l-32.32-24.52c-2.44-1.4-4.4-4.8-4.4-7.6l-4.72-24.08s3.48-2.08 4.28-2.54c.8-.46 1.9-.4 3.12.3v.04zm56.098 82.34 35.66 20.6c2.42 1.4 4.4 4.8 4.4 7.6v24.7c0 1.48-.56 2.5-1.44 2.92-.78.38-4.58 2.6-4.58 2.6l-32.32-24.52c-2.42-1.4-4.4-4.8-4.4-7.6l-4.72-24.08s3.5-2.08 4.28-2.54c.8-.46 1.9-.4 3.1.3h.02v.02zm-56.098-32.28 35.66 20.58c2.42 1.4 4.38 4.8 4.38 7.6v24.7c0 1.48-.54 2.5-1.44 2.92-.76.38-4.56 2.6-4.56 2.6l-32.32-24.52c-2.44-1.4-4.4-4.8-4.4-7.6l-4.72-24.08s3.48-2.08 4.28-2.54c.8-.46 1.9-.4 3.12.3v.04z"/><path fill="#fff" d="m228.419 281.76 35.68 20.6c2.42 1.4 4.38 4.8 4.38 7.6v24.7c0 2.8-1.96 3.92-4.38 2.54l-35.68-20.58c-2.42-1.4-4.38-4.8-4.38-7.6v-24.7c0-2.8 1.96-3.92 4.38-2.54v-.02zm56 32.32 35.661 20.6c2.42 1.4 4.38 4.8 4.38 7.6v24.7c0 2.8-1.96 3.92-4.38 2.54l-35.661-20.58c-2.44-1.4-4.399-4.8-4.399-7.6v-24.7c0-2.8 1.959-3.92 4.399-2.54v-.02zm-56 17.74 35.68 20.58c2.42 1.4 4.38 4.8 4.38 7.6v24.7c0 2.8-1.96 3.94-4.38 2.54l-35.68-20.6c-2.42-1.4-4.38-4.8-4.38-7.6v-24.7c0-2.8 1.96-3.92 4.38-2.54v.02zm56 32.32 35.661 20.58c2.42 1.4 4.38 4.8 4.38 7.6v24.7c0 2.8-1.96 3.92-4.38 2.54l-35.661-20.6c-2.44-1.4-4.399-4.8-4.399-7.6v-24.7c0-2.8 1.959-3.92 4.399-2.54v.02z"/><path fill="#FAAA00" d="m344.021 342.86 35.68 20.6c2.42 1.4 4.38 4.8 4.38 7.6v74.58c0 1.48-.54 2.5-1.44 2.92-.78.36-3.5 1.98-3.5 1.98l-33.4-23.9c-2.42-1.4-4.38-4.8-4.38-7.6l-4.74-73.96s3.5-2.08 4.3-2.54c.8-.46 1.9-.4 3.1.3v.02z"/><path fill="#FAC800" d="m340.22 345.08 35.66 20.6c2.42 1.4 4.38 4.8 4.38 7.6v74.78c0 2.8-1.96 3.92-4.38 2.54l-35.66-20.58c-2.44-1.4-4.4-4.8-4.4-7.6v-74.78c0-2.8 1.96-3.92 4.4-2.54v-.02z"/><path fill="#0C1834" d="M302.02 441.64c0 8.94-40.44 16.18-90.34 16.18-49.9 0-90.34-7.24-90.34-16.18s40.44-16.18 90.34-16.18c49.9 0 90.34 7.24 90.34 16.18z"/><path fill="#0C1834" d="M158.76 462.2c47.74 0 86.44-7.52 86.44-16.8 0-9.28-38.7-16.8-86.44-16.8-47.74 0-86.42 7.52-86.42 16.8 0 9.28 38.7 16.8 86.42 16.8z"/><path fill="#0C1834" d="M235.959 469.3c0 7.06-31.7 12.8-70.8 12.8-39.1 0-70.78-5.74-70.78-12.8 0-7.06 31.68-12.8 70.78-12.8s70.8 5.74 70.8 12.8z"/><path fill="#FAC800" d="m177.341 439.74-.04.08c0-.02.04-.06.04-.08z"/><path fill="#FAAA00" d="M177.319 439.66v-5.2c-.26 5.08-22.18 9.2-49.2 9.2-20.74 0-38.44-2.42-45.68-5.84-2.26-1.06-3.56-2.22-3.56-3.44v12.46c.6 5.04 22.38 9.08 49.22 9.08s48.7-4.06 49.18-9.1c.04 0 .04-.14.04-.14v-7.02z"/><path fill="#FAC800" d="M82.439 437.82c7.24 3.42 24.94 5.84 45.68 5.84 27.02 0 48.94-4.1 49.2-9.2.02-5.2-22.02-9.36-49.2-9.36-27.18 0-49.24 4.16-49.24 9.28 0 1.22 1.28 2.38 3.56 3.44zm45.68-10.64c22.96 0 41.56 3.24 41.56 7.2s-18.62 7.2-41.56 7.2-41.56-3.22-41.56-7.2 18.6-7.2 41.56-7.2z"/><path fill="#FAAA00" d="M128.119 441.56c22.96 0 41.56-3.22 41.56-7.2s-18.62-7.2-41.56-7.2-41.56 3.22-41.56 7.2 18.62 7.2 41.56 7.2z"/><path fill="#FAC800" d="m177.341 425.02-.04.08c0-.02.04-.06.04-.08z"/><path fill="#FAAA00" d="M177.319 424.92v-5.2c-.26 5.08-22.18 9.2-49.2 9.2-20.74 0-38.44-2.42-45.68-5.84-2.26-1.06-3.56-2.22-3.56-3.44v12.46c.6 5.04 22.38 9.08 49.22 9.08s48.7-4.06 49.18-9.1c.04 0 .04-.14.04-.14v-7.02z"/><path fill="#FAC800" d="M82.439 423.08c7.24 3.42 24.94 5.84 45.68 5.84 27.02 0 48.94-4.1 49.2-9.2.02-5.2-22.02-9.36-49.2-9.36-27.18 0-49.24 4.16-49.24 9.28 0 1.22 1.28 2.38 3.56 3.44zm45.68-10.64c22.96 0 41.56 3.22 41.56 7.2s-18.62 7.2-41.56 7.2-41.56-3.24-41.56-7.2 18.6-7.2 41.56-7.2z"/><path fill="#FAAA00" d="M128.119 426.84c22.96 0 41.56-3.24 41.56-7.2s-18.62-7.2-41.56-7.2-41.56 3.22-41.56 7.2 18.62 7.2 41.56 7.2z"/><path fill="#FAC800" d="m186.001 409.2-.04.08c0-.02.04-.06.04-.08z"/><path fill="#FAAA00" d="M185.959 409.1v-5.2c-.24 5.08-22.18 9.2-49.2 9.2-20.72 0-38.42-2.42-45.68-5.84-2.26-1.06-3.54-2.22-3.54-3.44v12.46c.58 5.04 22.36 9.08 49.2 9.08 26.84 0 48.7-4.06 49.18-9.12.04 0 .04-.14.04-.14v-7.02.02z"/><path fill="#FAC800" d="M91.08 407.26c7.26 3.42 24.959 5.84 45.679 5.84 27.02 0 48.96-4.1 49.2-9.2.04-5.2-22.02-9.36-49.2-9.36-27.18 0-49.22 4.14-49.22 9.28 0 1.22 1.26 2.38 3.54 3.44zm45.679-10.64c22.96 0 41.56 3.22 41.56 7.2s-18.62 7.2-41.56 7.2-41.56-3.22-41.56-7.2 18.6-7.2 41.56-7.2z"/><path fill="#FAAA00" d="M136.759 411.02c22.96 0 41.56-3.22 41.56-7.2s-18.6-7.2-41.56-7.2-41.56 3.22-41.56 7.2 18.6 7.2 41.56 7.2z"/><path fill="#FAC800" d="m177.341 394.46-.04.1c0-.02.04-.06.04-.1z"/><path fill="#FAAA00" d="M177.319 394.38v-5.2c-.26 5.08-22.18 9.2-49.2 9.2-20.74 0-38.44-2.42-45.68-5.84-2.26-1.06-3.56-2.22-3.56-3.44v12.46c.6 5.04 22.38 9.08 49.22 9.08s48.7-4.06 49.18-9.1c.04 0 .04-.14.04-.14v-7.02z"/><path fill="#FAC800" d="M82.439 392.52c7.24 3.42 24.94 5.84 45.68 5.84 27.02 0 48.94-4.1 49.2-9.2.02-5.2-22.02-9.36-49.2-9.36-27.18 0-49.24 4.16-49.24 9.28 0 1.22 1.28 2.38 3.56 3.44zm45.68-10.64c22.96 0 41.56 3.24 41.56 7.2s-18.62 7.2-41.56 7.2-41.56-3.22-41.56-7.2 18.6-7.2 41.56-7.2z"/><path fill="#FAAA00" d="M128.119 396.28c22.96 0 41.56-3.22 41.56-7.2s-18.62-7.2-41.56-7.2-41.56 3.24-41.56 7.2 18.62 7.2 41.56 7.2z"/><path fill="#FAC800" d="m171.098 379.02-.02.08c0-.02.02-.06.02-.08z"/><path fill="#FAAA00" d="M171.08 378.94v-5.2c-.24 5.08-22.16 9.2-49.2 9.2-20.72 0-38.42-2.42-45.68-5.84-2.26-1.06-3.54-2.22-3.54-3.44v12.46c.58 5.04 22.36 9.08 49.2 9.08 26.84 0 48.7-4.06 49.18-9.12.04 0 .04-.14.04-.14v-7.02.02z"/><path fill="#FAC800" d="M76.2 377.08c7.26 3.42 24.96 5.84 45.68 5.84 27.04 0 48.96-4.1 49.2-9.2.04-5.2-22.02-9.36-49.2-9.36-27.18 0-49.22 4.16-49.22 9.28 0 1.22 1.26 2.38 3.54 3.44zm45.68-10.64c22.96 0 41.56 3.24 41.56 7.2s-18.6 7.2-41.56 7.2-41.56-3.22-41.56-7.2 18.62-7.2 41.56-7.2z"/><path fill="#FAAA00" d="M121.88 380.82c22.96 0 41.56-3.22 41.56-7.2s-18.6-7.2-41.56-7.2-41.56 3.24-41.56 7.2 18.62 7.2 41.56 7.2z"/><path fill="#FAC800" d="m177.341 364.3-.04.08c0-.02.04-.06.04-.08z"/><path fill="#FAAA00" d="M177.319 364.2V359c-.26 5.08-22.18 9.2-49.2 9.2-20.74 0-38.44-2.42-45.68-5.84-2.26-1.06-3.56-2.22-3.56-3.44v12.46c.6 5.04 22.38 9.08 49.22 9.08s48.7-4.06 49.18-9.12c.04 0 .04-.14.04-.14v-7.02.02z"/><path fill="#FAC800" d="M82.439 362.36c7.24 3.42 24.94 5.84 45.68 5.84 27.02 0 48.94-4.1 49.2-9.2.02-5.2-22.02-9.36-49.2-9.36-27.18 0-49.24 4.16-49.24 9.28 0 1.22 1.28 2.38 3.56 3.44zm45.68-10.64c22.96 0 41.56 3.22 41.56 7.2s-18.62 7.2-41.56 7.2-41.56-3.24-41.56-7.2 18.6-7.2 41.56-7.2z"/><path fill="#FAC800" d="M128.119 366.1c22.96 0 41.56-3.22 41.56-7.2s-18.62-7.2-41.56-7.2-41.56 3.24-41.56 7.2 18.62 7.2 41.56 7.2zm164.741 64.62c-.04-.1-.04.1-.04.1 0-.04.04-.06.04-.1z"/><path fill="#FAAA00" d="M292.822 430.6v-6.28c-.3 6.12-26.7 11.06-59.26 11.06-24.98 0-46.3-2.92-55.04-7.02-2.72-1.28-4.28-2.68-4.28-4.14v15.02c.72 6.06 26.96 10.94 59.3 10.94 32.34 0 58.68-4.9 59.26-10.98.04 0 .04-.16.04-.16v-8.46h-.02v.02z"/><path fill="#FAC800" d="M178.499 428.38c8.74 4.12 30.08 7.02 55.04 7.02 32.56 0 58.98-4.94 59.28-11.06.02-6.28-26.52-11.28-59.28-11.28-32.76 0-59.32 5.02-59.32 11.18 0 1.46 1.54 2.86 4.26 4.14h.02zm55.04-12.82c27.66 0 50.08 3.88 50.08 8.68s-22.42 8.68-50.08 8.68c-27.66 0-50.08-3.88-50.08-8.68s22.42-8.68 50.08-8.68z"/><path fill="#FAAA00" d="M233.56 432.9c27.66 0 50.081-3.88 50.081-8.68s-22.421-8.68-50.081-8.68c-27.66 0-50.08 3.88-50.08 8.68s22.4 8.68 50.08 8.68z"/><path fill="#FAC800" d="M292.84 412.96c-.02-.1-.02.1-.02.1 0-.04.02-.06.02-.1z"/><path fill="#FAAA00" d="M292.822 412.86v-6.28c-.3 6.12-26.7 11.06-59.28 11.06-24.96 0-46.28-2.92-55.02-7.02-2.74-1.28-4.28-2.68-4.28-4.14v15.02c.72 6.06 26.96 10.94 59.3 10.94 32.34 0 58.68-4.88 59.26-10.98.04 0 .04-.16.04-.16v-8.46h-.02v.02z"/><path fill="#FAC800" d="M178.499 410.64c8.74 4.12 30.06 7.02 55.04 7.02 32.56 0 58.98-4.94 59.28-11.06.02-6.28-26.54-11.28-59.28-11.28s-59.32 5-59.32 11.18c0 1.46 1.54 2.86 4.26 4.14h.02zm55.04-12.82c27.66 0 50.08 3.88 50.08 8.68s-22.42 8.68-50.08 8.68c-27.66 0-50.08-3.88-50.08-8.68s22.4-8.68 50.08-8.68z"/><path fill="#FAC800" d="M233.541 415.16c27.68 0 50.08-3.88 50.08-8.68s-22.4-8.68-50.08-8.68-50.08 3.88-50.08 8.68 22.42 8.68 50.08 8.68z"/><path fill="#FAAA00" d="M196.34 316.421c24.3-.26 47.54 19.519 51.94 44.199 4.38 24.68-11.76 44.88-36.06 45.16-24.3.26-47.56-19.52-51.94-44.2-4.38-24.68 11.74-44.879 36.06-45.159z"/><path fill="#FF7819" d="M198.402 316.421c24.3-.26 47.56 19.539 51.94 44.199 4.38 24.68-11.74 44.9-36.06 45.16-24.3.26-47.54-19.54-51.94-44.2-4.38-24.68 11.76-44.899 36.06-45.159z"/><path fill="#FAAA00" d="M242.778 395.3c15.88-15.96 13.46-44.14-5.44-62.96-18.88-18.82-47.1-21.14-62.98-5.18-15.9 15.96-13.46 44.141 5.42 62.981 18.9 18.82 47.1 21.139 63 5.179v-.02z"/><path fill="#FAC800" d="M201.521 321.58c-21.54.24-35.84 18.14-31.96 40 1.24 6.86 4.1 13.32 8.14 18.92l31.78-58.22c-2.62-.48-5.3-.74-7.96-.72v.02zm45.997 39.16c-.76-4.3-2.2-8.42-4.14-12.3l-25.3 52.18c20.12-1.52 33.2-18.88 29.46-39.88h-.02zm-38.039-38.44-31.78 58.22c8.8 12.22 23.12 20.4 37.88 20.24.84 0 1.66-.06 2.48-.12l25.3-52.18c-6.68-13.32-19.6-23.46-33.88-26.14v-.02zm9.381 134.96c-.04-.1-.04.1-.04.1 0-.04.04-.06.04-.1z"/><path fill="#FAAA00" d="M218.822 457.16v-6.28c-.3 6.12-26.7 11.08-59.26 11.08-24.98 0-46.3-2.92-55.04-7.02-2.74-1.28-4.28-2.68-4.28-4.14v15.02c.72 6.06 26.96 10.94 59.3 10.94 32.34 0 58.68-4.9 59.26-10.98.04 0 .04-.16.04-.16v-8.46h-.02z"/><path fill="#FAC800" d="M104.499 454.94c8.74 4.12 30.08 7.02 55.04 7.02 32.56 0 58.98-4.94 59.28-11.06.02-6.28-26.52-11.28-59.28-11.28-32.76 0-59.32 5.02-59.32 11.18 0 1.46 1.54 2.86 4.26 4.14h.02zm55.04-12.82c27.66 0 50.08 3.88 50.08 8.68s-22.42 8.68-50.08 8.68c-27.66 0-50.08-3.88-50.08-8.68s22.42-8.68 50.08-8.68z"/><path fill="#FAC800" d="M159.56 459.46c27.66 0 50.081-3.88 50.081-8.68s-22.421-8.68-50.081-8.68c-27.66 0-50.08 3.88-50.08 8.68s22.4 8.68 50.08 8.68z"/></g><defs><clipPath id="a"><path fill="#fff" d="M0 0h512v512H0z"/></clipPath></defs></svg>